<svg xmlns="http://www.w3.org/2000/svg" viewBox="0 0 32 32" role="img" aria-label="MB">
  <rect width="32" height="32" rx="7" fill="#f7f6f3"/>
  <rect x="1" y="1" width="30" height="30" rx="6" fill="none" stroke="#ddd9d0"/>
  <path
    fill="#3d5a4c"
    d="M8 22V10h3.2l3.4 7.1L18 10h3.2v12h-2.5v-7.4L14.2 22h-1.5l-4.5-7.4V22H8z"
  />
  <path
    fill="#3d5a4c"
    d="M20.2 22V10H24c2.8 0 4.5 1.5 4.5 3.8 0 2.1-1.3 3.3-3.2 3.6L29 22h-2.8l-3.5-4.2h-1.5V22h-3zm3 -6.8c1.3 0 2-.6 2-1.6s-.7-1.6-2-1.6h-2v3.2h2z"
  />
</svg>
